<svg width="32" height="32" viewBox="0 0 32 32" xmlns="http://www.w3.org/2000/svg">
  <defs>
    <linearGradient id="grad" x1="0%" y1="0%" x2="100%" y2="100%">
      <stop offset="0%" style="stop-color:#00ff88;stop-opacity:1" />
      <stop offset="50%" style="stop-color:#00d4ff;stop-opacity:1" />
      <stop offset="100%" style="stop-color:#ff0080;stop-opacity:1" />
    </linearGradient>
  </defs>
  
  <!-- Background circle -->
  <circle cx="16" cy="16" r="15" fill="url(#grad)" opacity="0.8"/>
  
  <!-- Document layers -->
  <rect x="8" y="6" width="12" height="16" rx="1" fill="white" opacity="0.9"/>
  <rect x="10" y="8" width="12" height="16" rx="1" fill="white" opacity="0.7"/>
  <rect x="12" y="10" width="12" height="16" rx="1" fill="white"/>
  
  <!-- Merge arrow -->
  <path d="M6 16 L10 12 L10 14 L18 14 L18 12 L22 16 L18 20 L18 18 L10 18 L10 20 Z" fill="url(#grad)" opacity="0.8"/>
  
  <!-- Document lines -->
  <line x1="14" y1="13" x2="22" y2="13" stroke="#333" stroke-width="0.5" opacity="0.6"/>
  <line x1="14" y1="15" x2="20" y2="15" stroke="#333" stroke-width="0.5" opacity="0.6"/>
  <line x1="14" y1="17" x2="22" y2="17" stroke="#333" stroke-width="0.5" opacity="0.6"/>
  <line x1="14" y1="19" x2="18" y2="19" stroke="#333" stroke-width="0.5" opacity="0.6"/>
</svg>